<svg width="258" height="64" viewBox="0 0 258 64" fill="none" xmlns="http://www.w3.org/2000/svg">
<g clip-path="url(#clip0_48_201)">
<path d="M39.7867 4.58665L38.4 3.20003L38.08 2.56003C37.6534 1.60003 36.6934 1.06665 35.7334 1.06665H28.3734C27.4134 1.06665 26.4534 1.60003 26.0268 2.56003L25.6 3.20003C25.6 3.20003 24.96 3.84003 24.2134 4.58665L22.4 6.40003C12.3734 9.38665 12.8 11.7334 12.8 11.7334L1.1734 53.9734C0.853402 55.1468 1.4934 56.2134 2.66678 56.5334L5.9734 57.4934C7.14678 57.8134 8.32003 57.1734 8.64003 56L16 27.7334V58.6668C16 61.0134 17.92 62.9334 20.2667 62.9334H43.7333C46.0799 62.9334 47.9999 61.0134 47.9999 58.6668V28.0534L55.3599 55.8934C55.6799 57.0668 56.8533 57.8134 58.0265 57.3868L61.3332 56.4268C62.3998 56.1068 63.1465 54.9334 62.8265 53.8668L51.2 11.7334C51.2 11.7334 51.6267 9.38678 41.6 6.40003L39.7867 4.58665Z" fill="#627EF9"/>
<path d="M12.8 11.7334C12.8 11.7334 12.3734 9.38665 22.4 6.40003L24.2134 4.58665C24.96 3.84003 25.6 3.20003 25.6 3.20003L26.0268 2.56003C26.4534 1.60003 27.4134 1.06665 28.3734 1.06665H35.7334C36.6934 1.06665 37.6534 1.60003 38.08 2.56003L38.4 3.20003L39.7867 4.58665L41.6 6.40003C51.6267 9.38678 51.2 11.7334 51.2 11.7334L62.8265 53.8668C63.1465 54.9334 62.3998 56.1068 61.3332 56.4268L58.0265 57.3868C56.8533 57.8134 55.6799 57.0668 55.3599 55.8934L47.9999 28.0534V58.6668C47.9999 61.0134 46.0799 62.9334 43.7333 62.9334H20.2667C17.92 62.9334 16 61.0134 16 58.6668V27.7334L8.64003 56C8.32003 57.1734 7.14678 57.8134 5.9734 57.4934L2.66678 56.5334C1.4934 56.2134 0.853402 55.1468 1.1734 53.9734L12.8 11.7334ZM12.8 11.7334H12.9067" stroke="black" stroke-width="0.320312"/>
<path d="M18.56 7.68005C12.48 10.0267 12.8 11.7334 12.8 11.7334L1.17334 53.9734C1.49334 54.8268 1.91996 55.5734 2.23996 56.4268C2.34659 56.4268 2.45334 56.5334 2.66659 56.5334L5.97321 57.4934C7.14659 57.8134 8.31984 57.1734 8.63984 56.0001L16 27.7334V58.6668C16 61.0134 17.92 62.9334 20.2666 62.9334H22.08C25.4933 57.3868 27.7333 48.0001 27.7333 37.3334C27.7333 23.3601 23.8933 11.5201 18.56 7.68005Z" fill="#627EF9"/>
<path d="M12.8 11.7334C12.8 11.7334 12.48 10.0267 18.56 7.68005C23.8933 11.5201 27.7333 23.3601 27.7333 37.3334C27.7333 48.0001 25.4933 57.3868 22.08 62.9334H20.2666C17.92 62.9334 16 61.0134 16 58.6668V27.7334L8.63984 56.0001C8.31984 57.1734 7.14659 57.8134 5.97321 57.4934L2.66659 56.5334C2.45334 56.5334 2.34659 56.4268 2.23996 56.4268C1.91996 55.5734 1.49334 54.8268 1.17334 53.9734L12.8 11.7334ZM12.8 11.7334H12.9066" stroke="black" stroke-width="0.320312"/>
<path d="M62.8267 53.9734L51.2001 11.7334C51.2001 11.6268 51.2001 11.5201 51.0935 11.3068C50.7735 10.6668 49.8135 9.60018 46.5068 8.1068C46.1868 8.00018 45.8668 7.7868 45.4402 7.68018C40.1068 11.5202 36.2668 23.3602 36.2668 37.3335C36.2668 48.0002 38.5068 57.3869 41.9202 62.9335H43.7336C46.0802 62.9335 48.0002 61.0135 48.0002 58.6669V28.0534L55.3602 55.8934C55.6802 57.0668 56.8536 57.8134 58.0268 57.3868L61.3335 56.4268C62.5067 56.2134 63.1467 55.1467 62.8267 53.9734Z" fill="#627EF9" stroke="black" stroke-width="0.320312"/>
<path d="M55.36 56C55.68 57.1734 56.8534 57.92 58.0267 57.4934L61.3333 56.5334C62.3999 56.2134 63.1467 55.04 62.8267 53.9734L62.1867 51.52L54.8267 53.6534L55.36 56Z" fill="#90E4FD" stroke="black" stroke-width="0.320312"/>
<path d="M1.8134 51.52L1.1734 53.9734C0.853402 55.1468 1.4934 56.2134 2.66678 56.5334L5.9734 57.4934C7.14678 57.8134 8.32003 57.1734 8.64003 56L9.28003 53.6534L1.8134 51.52Z" fill="#90E4FD" stroke="black" stroke-width="0.320312"/>
<path d="M1.1734 53.9734L12.8 11.7334C12.8 11.7334 12.8 11.7334 12.8 11.6268C12.8 11.5202 12.8 11.4134 12.9067 11.2002C13.2267 10.5602 14.1867 9.49355 17.4933 8.1068C17.8133 8.00018 18.1333 7.7868 18.5599 7.68018C18.7733 7.89355 18.9865 8.1068 19.3065 8.32018C16.32 9.70668 15.36 10.7734 15.04 11.3067C14.9334 11.4133 14.9334 11.6267 14.9334 11.6267C14.9334 11.6267 14.9334 11.6267 14.9334 11.7333L3.30678 53.9733C2.98678 55.1467 3.62678 56.2133 4.80015 56.5333L7.46678 57.3867C7.04015 57.6 6.40015 57.7067 5.86678 57.6L2.66678 56.5334C1.4934 56.2134 0.853402 55.1467 1.1734 53.9734Z" fill="#010101" stroke="black" stroke-width="0.320312"/>
<path d="M62.8265 53.9734L51.1999 11.7334C51.1999 11.7334 51.1999 11.7334 51.1999 11.6268C51.1999 11.5202 51.1999 11.4134 51.0932 11.2002C50.7732 10.6668 49.8132 9.60018 46.5066 8.1068C46.1866 8.00018 45.8666 7.7868 45.44 7.68018C45.2266 7.89355 45.0134 8.1068 44.6934 8.32018C47.68 9.7068 48.64 10.7736 48.96 11.3068C49.0666 11.5202 49.0666 11.6268 49.0666 11.7334C49.0666 11.7334 49.0666 11.7334 49.0666 11.8401L60.6932 54.0801C61.0132 55.2534 60.3732 56.32 59.1999 56.64L56.5332 57.3867C56.9599 57.6 57.5999 57.7067 58.1332 57.6L61.4399 56.64C62.5065 56.2134 63.1465 55.1467 62.8265 53.9734Z" fill="#627EF9" stroke="black" stroke-width="0.320312"/>
<path d="M41.6 33.0666C41.6 33.7066 41.1734 34.1333 40.5334 34.1333C39.8934 34.1333 39.4668 33.7066 39.4668 33.0666C39.4668 32.4266 39.8934 32 40.5334 32C41.1734 32 41.6 32.4266 41.6 33.0666Z" fill="black" stroke="black" stroke-width="0.320312"/>
<path d="M41.6 42.6666C41.6 43.3066 41.1734 43.7332 40.5334 43.7332C39.8934 43.7332 39.4668 43.3066 39.4668 42.6666C39.4668 42.0266 39.8934 41.6 40.5334 41.6C41.1734 41.6 41.6 42.0266 41.6 42.6666Z" fill="black" stroke="black" stroke-width="0.320312"/>
<path d="M57.4933 58.6666C55.9999 58.6666 54.7199 57.7066 54.3999 56.2132L53.7599 53.9732C53.6533 53.4399 53.9733 52.7998 54.5066 52.6932L61.8666 50.5599C62.1866 50.4532 62.3999 50.5599 62.7199 50.6665C62.9333 50.7731 63.1466 50.9865 63.2533 51.3065L63.8933 53.7599C64.3199 55.4665 63.3599 57.1732 61.6533 57.7065L58.3467 58.6665C58.0266 58.6666 57.8133 58.6666 57.4933 58.6666ZM56.1066 54.4L56.4266 55.68C56.5332 56.32 57.1732 56.64 57.8132 56.4266L61.1198 55.4666C61.6532 55.36 61.9732 54.72 61.8664 54.1866L61.4399 52.8L56.1066 54.4Z" fill="black" stroke="black" stroke-width="0.320312"/>
<path d="M6.50652 58.6667C6.18652 58.6667 5.86652 58.6667 5.65315 58.56L2.34652 57.6C0.639899 57.1734 -0.320101 55.36 0.106524 53.76L0.746524 51.3067C0.853149 50.9867 0.959899 50.7733 1.2799 50.6667C1.5999 50.56 1.81327 50.4533 2.13327 50.56L9.49327 52.6934C10.0266 52.9068 10.3466 53.44 10.2399 53.9734L9.5999 56.2134C9.2799 57.7067 7.9999 58.6667 6.50652 58.6667ZM2.5599 52.9067L2.13327 54.2933C2.02665 54.8267 2.34665 55.4667 2.8799 55.5733L6.18652 56.5333C6.7199 56.7467 7.3599 56.3199 7.46652 55.7867L7.89315 54.4L2.5599 52.9067Z" fill="black" stroke="black" stroke-width="0.320312"/>
<path d="M43.7335 64H20.2668C17.2801 64 14.9334 61.6534 14.9334 58.6666V36.0534L9.60014 56.32C9.28014 57.7066 8.00014 58.6666 6.50677 58.6666C6.18677 58.6666 5.86677 58.6666 5.65339 58.56L2.34677 57.6C0.640143 57.1734 -0.319857 55.36 0.106768 53.76L11.7335 11.6266C11.7335 10.3466 13.3335 8.10662 21.8669 5.44L24.7469 2.56L24.9603 2.02662C25.6001 0.746625 26.8801 0 28.2668 0H35.6268C37.0134 0 38.2934 0.746625 38.9334 2.02662L39.1468 2.56L42.0268 5.44C50.5601 8 52.1601 10.3466 52.1601 11.6266L63.7868 53.6533C64.2134 55.3599 63.2534 57.0666 61.5468 57.5999L58.2401 58.5599C58.0268 58.6665 57.8135 58.6665 57.4935 58.6665C56.0001 58.6665 54.7201 57.7065 54.4001 56.2131L49.0668 36.2665V58.6665C49.0668 61.6534 46.7201 64 43.7335 64ZM16.0001 26.6666H16.1068C16.6401 26.7732 17.0668 27.2 17.0668 27.7332V58.6666C17.0668 60.48 18.4534 61.8666 20.2668 61.8666H43.7334C45.5468 61.8666 46.9334 60.48 46.9334 58.6666V28.0534C46.9334 27.52 47.36 27.0934 47.8934 26.9867C48.4268 26.8801 48.96 27.3068 49.0668 27.7334L56.4268 55.5734C56.5334 56.1068 56.9601 56.4268 57.4934 56.4268C57.6 56.4268 57.7068 56.4268 57.8134 56.4268L61.12 55.4668C61.6534 55.3601 61.9734 54.7201 61.8666 54.1867L50.1335 12.0534C50.1335 11.9468 50.1335 11.84 50.1335 11.7334C50.0269 11.52 48.9601 9.70675 41.2801 7.36C41.0668 7.36 40.9601 7.25338 40.8535 7.04L37.6535 3.84C37.5469 3.73337 37.5469 3.62663 37.4401 3.52L37.1201 2.88C36.8001 2.45338 36.2668 2.13337 35.7335 2.13337H28.3735C27.7335 2.13337 27.2001 2.45337 26.9869 2.98675L26.6669 3.62675C26.6669 3.73338 26.5603 3.84012 26.4535 3.94675L23.2535 7.14675C23.1469 7.25338 22.9335 7.36013 22.8269 7.46675C15.4669 9.70675 14.1869 11.4134 13.9735 11.7334C13.9735 11.9467 13.9735 12.0534 13.8669 12.2668C13.8669 12.2668 13.8669 12.2668 13.8669 12.3734L2.13352 54.2934C2.02689 54.8267 2.34689 55.4668 2.88014 55.5734L6.18677 56.5334C6.72014 56.7467 7.36014 56.32 7.46677 55.7868L14.9334 27.4134C15.1468 26.9866 15.5735 26.6666 16.0001 26.6666Z" fill="black" stroke="black" stroke-width="0.320312"/>
<path d="M22.0801 63.9999H20.2667C17.2801 63.9999 14.9333 61.6533 14.9333 58.6666V36.0533L9.60007 56.3199C9.28007 57.7066 8.00006 58.6666 6.50669 58.6666C6.18669 58.6666 5.86669 58.6666 5.65331 58.5599L2.34669 57.5999C2.13331 57.4933 1.92006 57.4933 1.81331 57.3866C1.59994 57.2799 1.49331 57.0666 1.38669 56.9599C0.960065 56.1066 0.640064 55.3599 0.213314 54.5066C0.213314 54.3999 0.106689 54.1866 0.106689 54.0799C0.106689 53.9733 0.106689 53.8666 0.213314 53.7599L11.7333 11.6266C11.7333 10.5599 12.7999 8.85319 18.2399 6.71994C18.5599 6.61331 18.9866 6.61331 19.1999 6.82656C24.9599 10.9866 28.7999 23.2532 28.7999 37.3332C28.7999 47.7866 26.6666 57.5998 23.0399 63.4666C22.8267 63.7866 22.5067 63.9999 22.0801 63.9999ZM16.0001 26.6666H16.1067C16.6401 26.7732 17.0667 27.1999 17.0667 27.7332V58.6666C17.0667 60.4799 18.4533 61.8666 20.2667 61.8666H21.5467C24.7467 56.2132 26.6667 47.1466 26.6667 37.3332C26.6667 24.4266 23.2533 12.9066 18.4533 8.95981C14.8267 10.4532 14.0799 11.5198 13.9733 11.7332C13.9733 11.9466 13.9733 12.0532 13.8667 12.2666V12.3732L2.34669 53.9732C2.56006 54.5066 2.88006 55.0398 3.09331 55.6798L6.29331 56.6398C6.93331 56.8532 7.46669 56.4264 7.57331 55.8932L14.9333 27.4132C15.1467 26.9866 15.5734 26.6666 16.0001 26.6666Z" fill="black" stroke="black" stroke-width="0.320312"/>
<path d="M26.6665 9.59997C24.3199 9.59997 22.3999 7.67997 22.3999 5.33335C22.3999 4.69335 22.8265 4.26672 23.4665 4.26672C24.1065 4.26672 24.5332 4.69335 24.5332 5.33335C24.5332 6.50672 25.4932 7.46672 26.6665 7.46672C27.3065 7.46672 27.7332 7.89335 27.7332 8.53335C27.7332 9.17335 27.3065 9.59997 26.6665 9.59997Z" fill="black" stroke="black" stroke-width="0.320312"/>
<path d="M37.3332 9.59997C36.6932 9.59997 36.2666 9.17335 36.2666 8.53335C36.2666 7.89335 36.6932 7.46672 37.3332 7.46672C38.5066 7.46672 39.4666 6.50672 39.4666 5.33335C39.4666 4.69335 39.8932 4.26672 40.5332 4.26672C41.1732 4.26672 41.5998 4.69335 41.5998 5.33335C41.5998 7.67997 39.6799 9.59997 37.3332 9.59997Z" fill="black" stroke="black" stroke-width="0.320312"/>
<path d="M43.7333 64H41.9199C41.5999 64 41.1733 63.7867 40.9599 63.4667C37.3333 57.6 35.2 47.7867 35.2 37.3333C35.2 23.2533 39.0399 10.9867 44.7999 6.82666C45.1199 6.61328 45.4399 6.61328 45.7599 6.72003C46.1866 6.82666 46.5066 7.04003 46.8266 7.14666C49.6 8.32003 51.4132 9.60003 51.9466 10.7733C52.0532 11.0933 52.16 11.3067 52.16 11.5199L63.7866 53.6533C64.2132 55.3599 63.2532 57.0667 61.5466 57.5999L58.24 58.5599C58.0266 58.6665 57.8133 58.6665 57.4933 58.6665C55.9999 58.6665 54.72 57.7065 54.4 56.2132L49.0666 36.2665V58.6665C49.0666 61.6534 46.72 64 43.7333 64ZM42.4533 61.8667H43.7333C45.5467 61.8667 46.9333 60.48 46.9333 58.6667V28.0534C46.9333 27.52 47.36 27.0934 47.8933 26.9868C48.4267 26.8802 48.96 27.3068 49.0667 27.7334L56.4267 55.5734C56.5333 56.2134 57.1733 56.5334 57.8133 56.32L61.1199 55.36C61.6533 55.2534 61.9733 54.6134 61.8666 54.08L50.1333 12.0534C50.1333 11.9468 50.1333 11.84 50.1333 11.7334C50.0267 11.52 49.3867 10.56 46.08 9.17341C45.9733 9.06678 45.7599 9.06678 45.6533 8.96003C40.7467 12.9067 37.3333 24.4267 37.3333 37.3334C37.3333 47.1467 39.2533 56.2134 42.4533 61.8667Z" fill="black" stroke="black" stroke-width="0.320312"/>
</g>
<path d="M110.06 32.6896C110.21 32.6399 110.434 32.6151 110.734 32.6151C111.583 32.6151 112.008 33.1618 112.008 34.2552C112.008 34.8516 111.871 35.3611 111.596 35.7835C111.346 36.1811 110.946 36.4296 110.397 36.529C108.124 36.9515 105.888 37.4237 103.69 37.9455L103.577 38.8401C102.878 43.7357 101.479 47.3515 99.3809 49.6875C97.3076 52.0483 94.7097 53.2287 91.5873 53.2287C89.514 53.2287 87.9028 52.7192 86.7537 51.7004C85.6296 50.7063 85.0676 49.4265 85.0676 47.8609C85.0676 45.2516 86.2416 42.9281 88.5897 40.8903C90.9378 38.8526 94.4974 37.0509 99.2685 35.4853L100.018 30.2294C100.118 29.633 100.243 28.8378 100.393 27.8437C99.2185 30.9252 97.7198 33.2239 95.8963 34.7398C94.0727 36.2557 92.0369 37.0136 89.7887 37.0136C87.6405 37.0136 86.0043 36.3675 84.8802 35.0753C83.7562 33.7582 83.1941 32.0683 83.1941 30.0057C83.1941 29.0863 83.294 28.0798 83.4939 26.9864C83.6937 25.8681 84.006 24.3646 84.4306 22.476C84.8053 20.7613 85.0801 19.3945 85.2549 18.3756C85.4548 17.3568 85.5547 16.4497 85.5547 15.6545C85.5547 14.4616 85.0926 13.8652 84.1683 13.8652C83.4439 13.8652 82.5821 14.2256 81.5829 14.9462C80.6087 15.6421 79.5721 16.7231 78.473 18.1892C78.1233 18.6614 77.7361 18.8975 77.3114 18.8975C76.9617 18.8975 76.6495 18.736 76.3747 18.4129C76.1249 18.065 76 17.6798 76 17.2573C76 16.487 76.3497 15.6172 77.0491 14.648C79.5971 11.1689 82.5821 9.42939 86.0043 9.42939C87.5281 9.42939 88.7146 9.88913 89.5639 10.8086C90.4382 11.7281 90.8754 13.0824 90.8754 14.8717C90.8754 16.1639 90.7505 17.4934 90.5007 18.8602C90.2758 20.2022 89.9261 21.9168 89.4515 24.0043C89.1518 25.2468 88.9269 26.2533 88.7771 27.0237C88.6272 27.7692 88.5522 28.3904 88.5522 28.8875C88.5522 30.1548 88.7771 31.0619 89.2267 31.6086C89.6763 32.1553 90.4632 32.4287 91.5873 32.4287C92.9362 32.4287 94.31 31.6956 95.7089 30.2294C97.1327 28.7384 98.4067 26.4894 99.5308 23.4824C100.68 20.4755 101.504 16.7976 102.004 12.4487C102.129 11.3553 102.416 10.5849 102.866 10.1376C103.315 9.66547 103.965 9.42939 104.814 9.42939C106.563 9.42939 107.437 10.2992 107.437 12.0387C107.437 12.3369 107.424 12.573 107.399 12.747C106.875 16.4497 106.388 19.7921 105.938 22.7742C105.688 24.5634 105.413 26.4024 105.114 28.291C104.839 30.1797 104.564 32.0932 104.289 34.0315C106.113 33.5345 108.036 33.0872 110.06 32.6896ZM98.7065 39.3993C92.6614 41.4867 89.6389 44.0215 89.6389 47.0036C89.6389 47.6994 89.8512 48.271 90.2758 48.7183C90.7255 49.1904 91.35 49.4265 92.1493 49.4265C95.6215 49.4265 97.7947 46.1711 98.669 39.6602L98.7065 39.3993Z" fill="white"/>
<path d="M128.891 29.5957C129.216 29.5957 129.466 29.7572 129.641 30.0803C129.816 30.4033 129.903 30.8134 129.903 31.3104C129.903 32.5032 129.541 33.2115 128.816 33.4351C127.318 33.957 125.669 34.2552 123.87 34.3298C123.396 36.4172 122.459 38.0946 121.06 39.362C119.661 40.6045 118.075 41.2258 116.302 41.2258C114.803 41.2258 113.516 40.8655 112.442 40.1448C111.393 39.4241 110.594 38.4674 110.044 37.2746C109.495 36.0817 109.22 34.7895 109.22 33.3979C109.22 31.5092 109.582 29.8318 110.306 28.3656C111.031 26.8746 112.03 25.719 113.304 24.8989C114.578 24.054 115.989 23.6315 117.538 23.6315C119.437 23.6315 120.96 24.2901 122.109 25.6072C123.283 26.8994 123.97 28.5023 124.17 30.4158C125.344 30.3412 126.743 30.0927 128.367 29.6703C128.567 29.6206 128.741 29.5957 128.891 29.5957ZM116.601 37.2746C117.401 37.2746 118.088 36.9515 118.662 36.3054C119.262 35.6593 119.661 34.7274 119.861 33.5097C119.087 32.9878 118.487 32.3044 118.063 31.4595C117.663 30.6146 117.463 29.72 117.463 28.7756C117.463 28.378 117.501 27.9804 117.576 27.5828H117.388C116.389 27.5828 115.552 28.0674 114.878 29.0366C114.228 29.9809 113.904 31.3228 113.904 33.0624C113.904 34.4292 114.166 35.4729 114.69 36.1936C115.24 36.9142 115.877 37.2746 116.601 37.2746Z" fill="white"/>
<path d="M130.584 41.2258C129.46 41.2258 128.536 40.7164 127.811 39.6975C127.112 38.6538 126.762 37.3615 126.762 35.8208C126.762 33.957 126.887 32.2547 127.137 30.714C127.386 29.1484 127.799 27.4958 128.373 25.7563C128.623 25.0108 128.973 24.4765 129.422 24.1534C129.872 23.8303 130.584 23.6688 131.558 23.6688C132.108 23.6688 132.482 23.7558 132.682 23.9298C132.907 24.1037 133.019 24.3646 133.019 24.7125C133.019 24.9114 132.882 25.5823 132.607 26.7255C132.357 27.6449 132.158 28.4774 132.008 29.2229C131.508 31.8323 131.258 33.5718 131.258 34.4416C131.258 34.9634 131.321 35.3362 131.446 35.5599C131.571 35.7587 131.77 35.8581 132.045 35.8581C132.42 35.8581 132.882 35.4853 133.432 34.7398C134.006 33.9943 134.606 32.8636 135.23 31.3477C135.88 29.8318 136.504 27.968 137.104 25.7563C137.303 25.0108 137.603 24.4765 138.003 24.1534C138.427 23.8303 139.052 23.6688 139.876 23.6688C140.451 23.6688 140.85 23.7434 141.075 23.8925C141.3 24.0167 141.412 24.2652 141.412 24.638C141.412 25.2593 141.1 26.9615 140.476 29.7448C139.776 32.9257 139.427 34.8889 139.427 35.6344C139.427 36.1066 139.527 36.4793 139.726 36.7527C139.926 37.0012 140.188 37.1254 140.513 37.1254C141.013 37.1254 141.6 36.8272 142.274 36.2308C142.974 35.6096 143.898 34.6155 145.047 33.2487C145.347 32.9008 145.684 32.7269 146.059 32.7269C146.383 32.7269 146.633 32.876 146.808 33.1742C147.008 33.4724 147.108 33.8824 147.108 34.4043C147.108 35.3983 146.871 36.1687 146.396 36.7154C145.322 38.0325 144.16 39.1135 142.911 39.9584C141.687 40.8033 140.288 41.2258 138.715 41.2258C137.516 41.2258 136.629 40.7661 136.054 39.8466C135.505 38.9271 135.23 37.6349 135.23 35.9699C134.805 37.6597 134.168 38.9644 133.319 39.8839C132.47 40.7785 131.558 41.2258 130.584 41.2258Z" fill="white"/>
<path d="M159.282 28.7756C159.832 28.7756 160.294 28.9744 160.669 29.372C161.068 29.7448 161.268 30.217 161.268 30.7885C161.268 31.1116 161.193 31.4595 161.043 31.8323C160.644 32.7517 160.082 33.5221 159.357 34.1434C158.633 34.7646 157.833 35.0753 156.959 35.0753C156.26 35.0753 155.66 34.8268 155.161 34.3298C154.686 33.8327 154.449 33.1618 154.449 32.3168C154.449 31.8447 154.474 31.3352 154.524 30.7885C154.574 30.3909 154.599 30.1176 154.599 29.9685C154.599 29.7697 154.549 29.6206 154.449 29.5211C154.374 29.4217 154.274 29.372 154.149 29.372C153.799 29.372 153.325 29.7945 152.725 30.6394C152.126 31.4595 151.526 32.5529 150.927 33.9197C150.327 35.2865 149.84 36.7278 149.465 38.2437C149.19 39.4366 148.878 40.2318 148.528 40.6294C148.179 41.027 147.604 41.2258 146.805 41.2258C145.856 41.2258 145.181 40.7288 144.782 39.7348C144.407 38.7407 144.219 37.1503 144.219 34.9634C144.219 31.7329 144.682 28.6638 145.606 25.7563C145.831 25.0356 146.193 24.5137 146.692 24.1907C147.217 23.8428 147.941 23.6688 148.866 23.6688C149.365 23.6688 149.715 23.7309 149.915 23.8552C150.115 23.9795 150.215 24.2155 150.215 24.5634C150.215 24.9611 150.027 25.8557 149.653 27.2473C149.403 28.2413 149.203 29.1111 149.053 29.8566C148.903 30.6022 148.778 31.5216 148.678 32.6151C149.503 30.4779 150.427 28.7384 151.451 27.3964C152.475 26.0545 153.474 25.0977 154.449 24.5262C155.423 23.9546 156.31 23.6688 157.109 23.6688C157.833 23.6688 158.383 23.88 158.758 24.3025C159.157 24.7001 159.357 25.2965 159.357 26.0918C159.357 26.5639 159.22 27.4585 158.945 28.7756H159.282Z" fill="white"/>
<path d="M183.216 41.3376C179.894 41.3376 177.234 40.7164 175.235 39.4738C173.237 38.2065 172.238 36.2805 172.238 33.6961C172.238 32.3293 172.475 31.2855 172.95 30.5649C173.424 29.8442 174.124 29.4839 175.048 29.4839C175.722 29.4839 176.272 29.6578 176.697 30.0057C177.121 30.3536 177.334 30.801 177.334 31.3477C177.334 31.8447 177.296 32.2796 177.221 32.6523C177.221 32.7517 177.196 32.9257 177.146 33.1742C177.121 33.4227 177.109 33.6836 177.109 33.957C177.109 35.0753 177.671 35.9078 178.795 36.4545C179.944 37.0012 181.543 37.2746 183.591 37.2746C185.714 37.2746 187.375 36.9018 188.574 36.1563C189.773 35.3859 190.373 34.3173 190.373 32.9505C190.373 32.1056 190.098 31.3849 189.549 30.7885C188.999 30.1673 188.312 29.6578 187.488 29.2602C186.664 28.8378 185.502 28.3283 184.003 27.7319C182.08 26.9864 180.506 26.2781 179.282 25.6072C178.083 24.9362 177.046 24.0292 176.172 22.886C175.323 21.718 174.898 20.2767 174.898 18.562C174.898 16.7728 175.373 15.1823 176.322 13.7907C177.296 12.399 178.683 11.318 180.481 10.5477C182.305 9.7773 184.44 9.39212 186.888 9.39212C188.712 9.39212 190.385 9.66547 191.909 10.2122C193.433 10.7341 194.645 11.5417 195.544 12.6351C196.468 13.7286 196.93 15.0705 196.93 16.6609C196.93 18.2265 196.693 19.4069 196.218 20.2022C195.744 20.9974 195.044 21.395 194.12 21.395C193.47 21.395 192.921 21.1962 192.471 20.7986C192.047 20.401 191.834 19.9288 191.834 19.3821C191.834 18.9099 191.872 18.475 191.947 18.0774C192.022 17.3319 192.059 16.8597 192.059 16.6609C192.059 15.6172 191.547 14.822 190.523 14.2753C189.499 13.7286 188.225 13.4552 186.701 13.4552C184.553 13.4552 182.904 13.8528 181.755 14.648C180.631 15.4184 180.069 16.5118 180.069 17.9283C180.069 18.8726 180.356 19.6803 180.931 20.3513C181.53 21.0222 182.267 21.5814 183.141 22.0287C184.016 22.476 185.24 23.0103 186.813 23.6315C188.712 24.4019 190.236 25.0977 191.385 25.719C192.534 26.3403 193.508 27.1852 194.307 28.2538C195.132 29.3223 195.544 30.6394 195.544 32.205C195.544 35.1374 194.42 37.3988 192.172 38.9893C189.948 40.5548 186.963 41.3376 183.216 41.3376Z" fill="white"/>
<path d="M215.163 32.7269C215.487 32.7269 215.737 32.876 215.912 33.1742C216.112 33.4724 216.212 33.8824 216.212 34.4043C216.212 35.3983 215.974 36.1687 215.5 36.7154C214.426 38.0325 213.252 39.1135 211.978 39.9584C210.704 40.8033 209.242 41.2258 207.594 41.2258C202.498 41.2258 199.95 37.6597 199.95 30.5276C199.95 29.4342 199.987 28.3283 200.062 27.21H198.601C197.852 27.21 197.34 27.0734 197.065 26.8C196.815 26.5266 196.69 26.0918 196.69 25.4953C196.69 24.1037 197.252 23.4079 198.376 23.4079H200.512C200.937 20.6743 201.586 18.1768 202.46 15.9154C203.335 13.654 204.384 11.8523 205.608 10.5104C206.857 9.16846 208.193 8.49749 209.617 8.49749C210.666 8.49749 211.491 8.95723 212.09 9.8767C212.69 10.7962 212.989 11.9517 212.989 13.3434C212.989 17.1952 211.366 20.5501 208.118 23.4079H212.315C212.715 23.4079 213.002 23.4949 213.177 23.6688C213.352 23.8428 213.439 24.1658 213.439 24.638C213.439 26.3527 212.028 27.21 209.205 27.21H204.634C204.584 28.4526 204.559 29.4217 204.559 30.1176C204.559 32.702 204.858 34.5161 205.458 35.5599C206.082 36.6036 207.057 37.1254 208.381 37.1254C209.455 37.1254 210.404 36.8024 211.228 36.1563C212.053 35.5102 213.027 34.541 214.151 33.2487C214.451 32.9008 214.788 32.7269 215.163 32.7269ZM208.605 12.076C208.231 12.076 207.806 12.5481 207.331 13.4925C206.882 14.4119 206.445 15.7042 206.02 17.3692C205.62 19.0093 205.283 20.8358 205.008 22.8487C206.482 21.5814 207.581 20.1649 208.306 18.5993C209.055 17.0088 209.43 15.5675 209.43 14.2753C209.43 12.8091 209.155 12.076 208.605 12.076Z" fill="white"/>
<path d="M232.42 32.8014C232.745 32.8014 232.995 32.963 233.169 33.286C233.369 33.5842 233.469 33.9694 233.469 34.4416C233.469 35.0131 233.382 35.4605 233.207 35.7835C233.032 36.1066 232.757 36.3924 232.383 36.6409L225.189 41.4495C224.239 46.5936 222.99 50.6318 221.442 53.5642C219.918 56.5214 217.969 58 215.596 58C214.322 58 213.286 57.6024 212.486 56.8072C211.687 56.0368 211.287 55.0179 211.287 53.7505C211.287 52.5826 211.55 51.3897 212.074 50.172C212.624 48.9544 213.623 47.5503 215.072 45.9599C216.546 44.3943 218.619 42.5926 221.292 40.5548L221.404 39.6975C221.579 38.778 221.779 37.4609 222.004 35.7462C221.504 37.5355 220.805 38.9023 219.905 39.8466C219.006 40.7661 218.057 41.2258 217.058 41.2258C215.934 41.2258 215.009 40.7164 214.285 39.6975C213.585 38.6538 213.236 37.3615 213.236 35.8208C213.236 33.957 213.361 32.2547 213.61 30.714C213.86 29.1484 214.272 27.4958 214.847 25.7563C215.097 25.0108 215.446 24.4765 215.896 24.1534C216.346 23.8303 217.058 23.6688 218.032 23.6688C218.581 23.6688 218.956 23.7558 219.156 23.9298C219.381 24.1037 219.493 24.3646 219.493 24.7125C219.493 24.9114 219.356 25.5823 219.081 26.7255C218.831 27.6449 218.631 28.4774 218.481 29.2229C218.282 30.2418 218.107 31.2234 217.957 32.1677C217.807 33.0872 217.732 33.8452 217.732 34.4416C217.732 35.3859 217.994 35.8581 218.519 35.8581C218.894 35.8581 219.356 35.4853 219.905 34.7398C220.48 33.9943 221.079 32.8636 221.704 31.3477C222.353 29.8318 222.978 27.968 223.577 25.7563C223.777 25.0108 224.077 24.4765 224.477 24.1534C224.901 23.8303 225.526 23.6688 226.35 23.6688C226.925 23.6688 227.324 23.7434 227.549 23.8925C227.774 24.0416 227.886 24.2901 227.886 24.638C227.886 25.2593 227.562 27.3964 226.912 31.0495L225.938 37.0509C227.861 35.6096 229.735 34.2925 231.558 33.0996C231.883 32.9008 232.17 32.8014 232.42 32.8014ZM216.008 54.3842C216.633 54.3842 217.332 53.6636 218.107 52.2222C218.881 50.7809 219.656 48.3828 220.43 45.028C218.506 46.6432 217.108 48.1094 216.233 49.4265C215.384 50.7685 214.959 51.9364 214.959 52.9305C214.959 53.3529 215.034 53.7008 215.184 53.9742C215.359 54.2476 215.634 54.3842 216.008 54.3842Z" fill="white"/>
<path d="M245.441 32.7269C245.766 32.7269 246.016 32.876 246.191 33.1742C246.391 33.4724 246.49 33.8824 246.49 34.4043C246.49 35.3983 246.253 36.1687 245.779 36.7154C244.704 38.0325 243.53 39.1135 242.256 39.9584C241.007 40.8033 239.584 41.2258 237.985 41.2258C235.787 41.2258 234.151 40.2318 233.076 38.2437C232.027 36.2557 231.503 33.6836 231.503 30.5276C231.503 27.4958 231.89 24.0416 232.664 20.1649C233.464 16.2882 234.625 12.9582 236.149 10.1749C237.698 7.39164 239.534 6 241.657 6C242.856 6 243.793 6.55914 244.467 7.67742C245.167 8.77085 245.516 10.3489 245.516 12.4115C245.516 15.3687 244.692 18.7981 243.043 22.6996C241.395 26.6012 239.159 30.4655 236.336 34.2925C236.511 35.3114 236.798 36.0444 237.198 36.4918C237.598 36.9142 238.122 37.1254 238.772 37.1254C239.796 37.1254 240.695 36.8397 241.47 36.2681C242.244 35.6717 243.231 34.6652 244.43 33.2487C244.729 32.9008 245.067 32.7269 245.441 32.7269ZM240.833 9.69032C240.258 9.69032 239.609 10.7216 238.884 12.7842C238.16 14.8468 237.523 17.4065 236.973 20.4631C236.424 23.5197 236.124 26.4521 236.074 29.2602C237.848 26.3527 239.259 23.4452 240.308 20.5376C241.357 17.6053 241.882 14.9338 241.882 12.5233C241.882 10.6346 241.532 9.69032 240.833 9.69032Z" fill="white"/>
<path d="M256.951 33.8452C257.276 33.8452 257.525 33.9943 257.7 34.2925C257.9 34.5907 258 35.0007 258 35.5226C258 36.4172 257.788 37.1876 257.363 37.8337C256.664 38.9023 255.739 39.7348 254.59 40.3312C253.466 40.9276 252.117 41.2258 250.544 41.2258C248.146 41.2258 246.285 40.5176 244.961 39.1011C243.637 37.6597 242.975 35.7214 242.975 33.286C242.975 31.5713 243.337 29.9809 244.061 28.5147C244.786 27.0237 245.785 25.8433 247.059 24.9735C248.358 24.1037 249.819 23.6688 251.443 23.6688C252.892 23.6688 254.053 24.1037 254.928 24.9735C255.802 25.8184 256.239 26.974 256.239 28.4401C256.239 30.1548 255.614 31.6335 254.365 32.876C253.141 34.0937 251.043 35.0628 248.071 35.7835C248.67 36.9266 249.682 37.4982 251.106 37.4982C252.13 37.4982 252.967 37.2621 253.616 36.79C254.291 36.3178 255.065 35.5226 255.939 34.4043C256.239 34.0315 256.576 33.8452 256.951 33.8452ZM250.806 27.3219C249.882 27.3219 249.095 27.8562 248.445 28.9247C247.821 29.9933 247.509 31.2855 247.509 32.8014V32.876C248.982 32.5281 250.144 32.0062 250.993 31.3104C251.843 30.6146 252.267 29.8069 252.267 28.8875C252.267 28.4153 252.13 28.0425 251.855 27.7692C251.605 27.471 251.256 27.3219 250.806 27.3219Z" fill="white"/>
<defs>
<clipPath id="clip0_48_201">
<rect width="64" height="64" fill="white"/>
</clipPath>
</defs>
</svg>
